Coordinates
version=1
nRows=14
nColumns=40
inDegrees=yes

Units are S.I. units (second, meters, Newtons, ...)
Angles are in degrees.

endheader
time	pelvis_tilt	pelvis_list	pelvis_rotation	pelvis_tx	pelvis_ty	pelvis_tz	hip_flexion_r	hip_adduction_r	hip_rotation_r	knee_angle_r	knee_angle_r_beta	ankle_angle_r	subtalar_angle_r	mtp_angle_r	hip_flexion_l	hip_adduction_l	hip_rotation_l	knee_angle_l	knee_angle_l_beta	ankle_angle_l	subtalar_angle_l	mtp_angle_l	lumbar_extension	lumbar_bending	lumbar_rotation	arm_flex_r	arm_add_r	arm_rot_r	elbow_flex_r	pro_sup_r	wrist_flex_r	wrist_dev_r	arm_flex_l	arm_add_l	arm_rot_l	elbow_flex_l	pro_sup_l	wrist_flex_l	wrist_dev_l
     56.01750000	     -4.30044673	     -5.94678132	      3.08436019	      0.80296828	      0.92877268	      0.46349218	     11.45035373	      4.00894604	    -16.18823719	     17.82947128	     17.82947128	     12.17029291	      0.06754832	     -0.80410659	     31.80367280	    -11.48036311	      3.42039246	     65.20475020	     65.20475020	      5.05631001	    -17.92869655	      7.72834173	     -9.53527390	      6.20249155	      2.05558476	     23.05749270	    -19.21235633	     -6.46549315	     87.60623779	     44.60508832	      0.00000000	      0.00000000	     -7.40684593	     -5.64032059	     -3.13245812	     28.30555053	     45.09428367	      0.00000000	      0.00000000
     56.03071429	     -4.47663273	     -5.77791012	      3.44737791	      0.80129009	      0.92942088	      0.46329711	     10.94753639	      3.91085448	    -16.34839516	     17.16684991	     17.16684991	     12.01077470	      0.03696817	     -1.21177269	     33.07029036	    -11.06803834	      3.24053320	     63.01012011	     63.01012011	      6.22854112	    -17.88353747	      9.50654100	     -9.62574051	      6.07078316	      2.48508566	     24.84161895	    -19.82956744	     -6.43590275	     89.89141604	     44.58873767	      0.00000000	      0.00000000	     -8.29730341	     -5.85990732	     -1.33647925	     30.30471562	     44.83376348	      0.00000000	      0.00000000
     56.04392857	     -4.73630944	     -5.60336758	      3.80037179	      0.79950963	      0.92982043	      0.46298938	     10.61194327	      3.78091259	    -16.46172405	     16.65415841	     16.65415841	     12.06596139	     -0.05924646	     -1.13216963	     34.15476873	    -10.66660721	      2.92260050	     60.15255130	     60.15255130	      6.79848770	    -17.86792757	      9.70259441	     -9.55615771	      5.93512424	      2.84857947	     27.03287135	    -20.18724251	     -6.74454118	     90.76254930	     44.58377857	      0.00000000	      0.00000000	     -8.39264306	     -5.73493284	     -1.17206504	     30.33143840	     44.81243402	      0.00000000	      0.00000000
     56.05714286	     -4.76678005	     -5.46144680	      4.20706781	      0.79796919	      0.93050844	      0.46254745	      9.89448374	      3.74202214	    -16.61104980	     15.90808835	     15.90808835	     12.05094459	     -0.09229434	     -1.05821638	     34.69622077	    -10.16645314	      2.74705504	     56.71080794	     56.71080794	      7.30138522	    -17.93640285	      9.97536799	     -9.75161932	      5.83859394	      2.76913388	     29.28699196	    -20.03663635	     -6.67711457	     92.30461929	     44.55502360	      0.00000000	      0.00000000	     -8.72988430	     -5.72895544	     -0.66039222	     30.60586268	     44.74640653	      0.00000000	      0.00000000
     56.07035714	     -4.90785064	     -5.25888496	      4.57531018	      0.79635248	      0.93075213	      0.46192063	      9.44415105	      3.57439937	    -16.72390402	     15.46169091	     15.46169091	     12.15306134	     -0.21602459	     -1.07823586	     35.13680492	     -9.57805831	      2.51606380	     52.88999382	     52.88999382	      7.76641634	    -17.71682127	     10.14799068	     -9.81183642	      5.67076103	      2.93286038	     31.43277994	    -20.21693682	     -6.63311175	     93.43411717	     44.53708811	      0.00000000	      0.00000000	     -8.88839042	     -5.72203277	     -0.29505440	     30.98923103	     44.70222143	      0.00000000	      0.00000000
     56.08357143	     -5.07558727	     -5.11128297	      4.92418845	      0.79478263	      0.93066226	      0.46124253	      9.05208666	      3.44735175	    -16.87425521	     15.07244036	     15.07244036	     12.21434302	     -0.31762200	     -1.41931883	     35.36142791	     -9.02373029	      2.32294613	     48.65853301	     48.65853301	      7.65754931	    -17.38138323	      8.86021790	     -9.84083274	      5.56737250	      2.88745848	     33.74235992	    -20.42919575	     -5.88421054	     94.40291126	     44.55929741	      0.00000000	      0.00000000	     -9.61067805	     -6.12333613	      1.62275962	     32.71955290	     44.50539541	      0.00000000	      0.00000000
     56.09678571	     -5.36224504	     -5.04373649	      5.28608208	      0.79317251	      0.93011714	      0.46046942	      8.88646127	      3.37109852	    -17.01415293	     14.87054203	     14.87054203	     12.43991419	     -0.52797268	     -1.47334487	     35.66713025	     -8.49347546	      2.25550883	     44.44246575	     44.44246575	      8.20307479	    -16.36046241	      9.16852846	     -9.66140048	      5.52636570	      3.17192794	     35.73433781	    -20.68354854	     -6.07440386	     95.13641661	     44.55399740	      0.00000000	      0.00000000	     -9.48844846	     -6.07304303	      1.70796064	     32.81954479	     44.50196324	      0.00000000	      0.00000000
     56.11000000	     -5.36420245	     -4.83048281	      5.58141575	      0.79193698	      0.92985080	      0.45960374	      8.35660572	      3.17333177	    -17.03516577	     14.65042608	     14.65042608	     12.75200408	     -0.64548442	     -1.56219680	     35.33506047	     -7.81383816	      2.24504231	     39.95988520	     39.95988520	      8.65276369	    -15.28879262	      9.32431615	     -9.84433447	      5.31952784	      3.20171588	     37.75699386	    -20.55865698	     -5.89740935	     96.20653743	     44.53090332	      0.00000000	      0.00000000	     -9.47083127	     -6.13990457	      1.88551951	     32.95836335	     44.49188185	      0.00000000	      0.00000000
     56.12321429	     -5.45842237	     -4.74412749	      5.89457749	      0.79076603	      0.92911565	      0.45865503	      7.96630805	      3.08188745	    -17.16683811	     14.50460874	     14.50460874	     13.12620868	     -0.75004266	     -1.71607380	     35.06122463	     -7.27695074	      2.28467849	     35.59953274	     35.59953274	      9.02777469	    -13.76907561	      9.28974364	     -9.86984310	      5.26337539	      3.20430654	     39.73963893	    -20.51029109	     -5.53759146	     97.12547372	     44.50919790	      0.00000000	      0.00000000	     -9.46407891	     -6.20493321	      2.07975677	     33.23228941	     44.48330263	      0.00000000	      0.00000000
     56.13642857	     -5.58381347	     -4.69108274	      6.16139220	      0.78976323	      0.92809064	      0.45767679	      7.64307954	      3.01707588	    -17.21311544	     14.43963643	     14.43963643	     13.54355292	     -0.89625343	     -1.89196326	     34.76459764	     -6.81396710	      2.29138329	     31.46817190	     31.46817190	      9.43458266	    -11.99873007	      9.48300759	     -9.81077758	      5.20430865	      3.31670266	     41.58127895	    -20.54434697	     -5.34097506	     97.81558288	     44.49518423	      0.00000000	      0.00000000	     -9.35401309	     -6.28820144	      2.17162478	     33.46234666	     44.48342499	      0.00000000	      0.00000000
     56.14964286	     -5.62965310	     -4.69716765	      6.42233597	      0.78900467	      0.92696469	      0.45667973	      7.23301221	      3.02642012	    -17.27144086	     14.40287152	     14.40287152	     14.01548963	     -1.03212109	     -2.09905861	     34.36702025	     -6.45818276	      2.27097854	     27.68940710	     27.68940710	      9.80871072	    -10.10897177	      9.70256352	     -9.80390701	      5.20141268	      3.32115600	     43.31238700	    -20.43847355	     -5.00031544	     98.50758815	     44.47689008	      0.00000000	      0.00000000	     -9.24858966	     -6.39238551	      2.25564218	     33.71560674	     44.48604349	      0.00000000	      0.00000000
     56.16285714	     -5.75292803	     -4.84114975	      6.67998876	      0.78836152	      0.92548261	      0.45561265	      6.93311404	      3.16380230	    -17.35916793	     14.40237743	     14.40237743	     14.46922763	     -1.17984464	     -2.30066585	     34.16890276	     -6.22595857	      2.32999727	     24.50402764	     24.50402764	     10.12280458	     -8.41369248	      9.99922830	     -9.65239527	      5.34210969	      3.38830084	     44.91793547	    -20.38687583	     -4.81187724	     99.08239134	     44.46396702	      0.00000000	      0.00000000	     -9.05923132	     -6.46457977	      2.29037249	     33.92765486	     44.49216664	      0.00000000	      0.00000000
     56.17607143	     -5.71544076	     -4.82714814	      6.88546001	      0.78811356	      0.92425257	      0.45457252	      6.39748077	      3.17453300	    -17.33371844	     14.36820006	     14.36820006	     15.00315170	     -1.31121265	     -2.51144221	     33.72950636	     -5.96113713	      1.99782133	     21.77579297	     21.77579297	     10.28865087	     -6.78520148	     10.30941931	     -9.66345231	      5.25720049	      3.32834791	     46.33924331	    -20.13184729	     -4.43210749	     99.70190306	     44.44412997	      0.00000000	      0.00000000	     -8.92550221	     -6.59917984	      2.31166901	     34.12817878	     44.50157122	      0.00000000	      0.00000000
     56.18928571	     -5.66565360	     -4.89676822	      7.09315249	      0.78811363	      0.92294645	      0.45347265	      5.83127349	      3.27681345	    -17.34025171	     14.31265113	     14.31265113	     15.51401782	     -1.42369187	     -2.71202878	     33.41533129	     -5.80954956	      1.57942526	     19.77688235	     19.77688235	     10.34856785	     -5.39724944	     10.45543389	     -9.64241828	      5.25759573	      3.15833697	     47.58324599	    -19.77366639	     -3.91238156	    100.26993127	     44.42393477	      0.00000000	      0.00000000	     -8.80691132	     -6.82999580	      2.27830667	     34.38038357	     44.52303606	      0.00000000	      0.00000000
